# xmcd
#
# Track frame offsets:
#	150
#	19450
#	32581
#	49315
#
# Disc length: 905 seconds
#
# Revision: 0
# Processed by: cddbd v1.5.2PL0 Copyright (c) Steve Scherf et al.
# Submitted via: audiograbber 1.83.01
#
DISCID=2f038704
DTITLE=Various Artist - CDX 670
DYEAR=2018
DGENRE=Country
TTITLE0=Ryan Sims - Get Away
TTITLE1=Lynn Easterly - I Listen To My Bad Girl
TTITLE2=Wilson Brothers Band - Loving You Loving On Me
TTITLE3=Brian Wayne ft. Big and Rich and Friends - Simplify
EXTD=
EXTT0=
EXTT1=
EXTT2=
EXTT3=
PLAYORDER=
